<?xml version="1.0" encoding="UTF-8"?>
<svg xmlns="http://www.w3.org/2000/svg" width="150" height="150" viewBox="0 0 150 150" fill="none">
  <path d="M30.3295 80.0455H33.7102L36.544 83.7741L37.2898 84.7685L41.5156 90.3864H38.1349L35.3509 86.6577L34.6548 85.7131L30.3295 80.0455ZM42.5597 75.2727C42.5597 77.9574 42.0749 80.2775 41.1055 82.233C40.136 84.1884 38.8061 85.6965 37.1158 86.7571C35.4254 87.8177 33.4948 88.348 31.3239 88.348C29.1529 88.348 27.2223 87.8177 25.532 86.7571C23.8416 85.6965 22.5117 84.1884 21.5423 82.233C20.5728 80.2775 20.0881 77.9574 20.0881 75.2727C20.0881 72.5881 20.5728 70.268 21.5423 68.3125C22.5117 66.357 23.8416 64.849 25.532 63.7884C27.2223 62.7277 29.1529 62.1974 31.3239 62.1974C33.4948 62.1974 35.4254 62.7277 37.1158 63.7884C38.8061 64.849 40.136 66.357 41.1055 68.3125C42.0749 70.268 42.5597 72.5881 42.5597 75.2727ZM39.5767 75.2727C39.5767 73.0687 39.208 71.2085 38.4705 69.6921C37.7414 68.1758 36.7512 67.0282 35.5 66.2493C34.2571 65.4704 32.8651 65.081 31.3239 65.081C29.7827 65.081 28.3865 65.4704 27.1353 66.2493C25.8924 67.0282 24.9022 68.1758 24.1648 69.6921C23.4356 71.2085 23.071 73.0687 23.071 75.2727C23.071 77.4768 23.4356 79.337 24.1648 80.8533C24.9022 82.3697 25.8924 83.5173 27.1353 84.2962C28.3865 85.075 29.7827 85.4645 31.3239 85.4645C32.8651 85.4645 34.2571 85.075 35.5 84.2962C36.7512 83.5173 37.7414 82.3697 38.4705 80.8533C39.208 79.337 39.5767 77.4768 39.5767 75.2727ZM47.7425 88V62.5455H50.8249V85.2656H62.6573V88H47.7425ZM74.788 88.3977C73.0645 88.3977 71.5523 87.9876 70.2514 87.1673C68.9588 86.3469 67.9479 85.1993 67.2188 83.7244C66.4979 82.2495 66.1374 80.526 66.1374 78.554C66.1374 76.5653 66.4979 74.8294 67.2188 73.3462C67.9479 71.863 68.9588 70.7113 70.2514 69.891C71.5523 69.0707 73.0645 68.6605 74.788 68.6605C76.5115 68.6605 78.0195 69.0707 79.3121 69.891C80.613 70.7113 81.6239 71.863 82.3448 73.3462C83.074 74.8294 83.4386 76.5653 83.4386 78.554C83.4386 80.526 83.074 82.2495 82.3448 83.7244C81.6239 85.1993 80.613 86.3469 79.3121 87.1673C78.0195 87.9876 76.5115 88.3977 74.788 88.3977ZM74.788 85.7628C76.0972 85.7628 77.1744 85.4272 78.0195 84.756C78.8647 84.0849 79.4903 83.2024 79.8963 82.1087C80.3023 81.0149 80.5053 79.83 80.5053 78.554C80.5053 77.2779 80.3023 76.0889 79.8963 74.9869C79.4903 73.8848 78.8647 72.9941 78.0195 72.3146C77.1744 71.6352 76.0972 71.2955 74.788 71.2955C73.4788 71.2955 72.4016 71.6352 71.5565 72.3146C70.7113 72.9941 70.0857 73.8848 69.6797 74.9869C69.2737 76.0889 69.0707 77.2779 69.0707 78.554C69.0707 79.83 69.2737 81.0149 69.6797 82.1087C70.0857 83.2024 70.7113 84.0849 71.5565 84.756C72.4016 85.4272 73.4788 85.7628 74.788 85.7628ZM88.3138 88V62.5455H96.9147C98.9033 62.5455 100.536 62.8852 101.812 63.5646C103.088 64.2358 104.032 65.1597 104.646 66.3363C105.259 67.5129 105.565 68.8511 105.565 70.3509C105.565 71.8506 105.259 73.1805 104.646 74.3406C104.032 75.5006 103.092 76.412 101.824 77.0749C100.556 77.7295 98.9365 78.0568 96.9644 78.0568H90.0042V75.2727H96.865C98.2239 75.2727 99.3176 75.0739 100.146 74.6761C100.983 74.2784 101.588 73.715 101.961 72.9858C102.342 72.2483 102.533 71.37 102.533 70.3509C102.533 69.3317 102.342 68.4409 101.961 67.6786C101.58 66.9163 100.971 66.328 100.134 65.9137C99.2969 65.4911 98.1907 65.2798 96.8153 65.2798H91.3962V88H88.3138ZM100.295 76.5653L106.56 88H102.98L96.8153 76.5653H100.295ZM111.746 88H108.514L117.861 62.5455H121.042L130.389 88H127.157L119.551 66.5724H119.352L111.746 88ZM112.939 78.0568H125.964V80.7912H112.939V78.0568Z" fill="black"></path>
</svg>
